<?xml version="1.0" encoding="utf-8"?>
<!-- Generator: Adobe Illustrator 22.0.0, SVG Export Plug-In . SVG Version: 6.00 Build 0)  -->
<svg xmlns="http://www.w3.org/2000/svg" xmlns:xlink="http://www.w3.org/1999/xlink" version="1.1" id="Layer_1" x="0px" y="0px" viewBox="0 0 500 500" style="enable-background:new 0 0 500 500;" xml:space="preserve" width="512" height="512">
<style type="text/css">
	.st0{fill:#83E1E5;}
	.st1{fill:#AAB1BA;}
	.st2{fill:#ECF4F7;}
	.st3{fill:#FDDF7F;}
	.st4{fill:#1C1D21;}
	.st5{fill:#FFFFFF;}
</style>
<g>
	<g>
		<path class="st0" d="M352.989,205.456c-7.056-6.747-14.627-13.396-22.71-19.882c-25.559-20.512-53.116-36.992-80.279-48.872    c-27.163,11.879-54.72,28.36-80.279,48.872c-8.083,6.487-15.654,13.135-22.71,19.882c-1.812,14.307-2.773,29.218-2.773,44.544    s0.961,30.237,2.773,44.544c7.056,6.747,14.627,13.396,22.71,19.882c25.559,20.512,53.116,36.992,80.279,48.872    c27.163-11.879,54.72-28.36,80.279-48.872c8.083-6.487,15.654-13.135,22.71-19.882c1.812-14.307,2.773-29.218,2.773-44.544    S354.801,219.763,352.989,205.456z"/>
	</g>
</g>
<g>
	<g>
		<path class="st2" d="M330.279,314.426c-4.621,3.708-9.309,7.28-14.046,10.722v-22.582c0-11.921-9.664-21.586-21.586-21.586    h-89.293c-11.922,0-21.586,9.665-21.586,21.586v22.582c-4.737-3.441-9.425-7.013-14.046-10.722    c-8.083-6.487-15.654-13.135-22.71-19.882c4.349,34.34,13.613,65.193,26.353,89.894c23.655-2.25,49.953-9.47,76.636-21.14    c26.683,11.669,52.981,18.89,76.636,21.14c12.74-24.701,22.004-55.553,26.353-89.894    C345.933,301.291,338.361,307.939,330.279,314.426z"/>
	</g>
</g>
<g>
	<g>
		<path class="st2" d="M330.279,185.574c8.083,6.487,15.654,13.135,22.71,19.882c-4.349-34.34-13.613-65.193-26.353-89.894    c-23.655,2.25-49.953,9.47-76.636,21.14C277.163,148.582,304.72,165.062,330.279,185.574z"/>
	</g>
</g>
<g>
	<g>
		<path class="st2" d="M169.721,185.574c25.559-20.512,53.116-36.992,80.279-48.872c-26.683-11.669-52.981-18.89-76.636-21.14    c-12.74,24.701-22.004,55.553-26.353,89.894C154.067,198.709,161.639,192.061,169.721,185.574z"/>
	</g>
</g>
<g>
	<g>
		<path class="st2" d="M147.011,294.544c-1.812-14.307-2.773-29.218-2.773-44.544s0.961-30.237,2.773-44.544    c-15.255,14.587-28.065,29.639-38.187,44.544C118.946,264.905,131.756,279.957,147.011,294.544z"/>
	</g>
</g>
<g>
	<g>
		<path class="st2" d="M352.989,205.456c1.812,14.307,2.773,29.218,2.773,44.544s-0.961,30.237-2.773,44.544    c15.255-14.587,28.065-29.639,38.187-44.544C381.054,235.095,368.244,220.043,352.989,205.456z"/>
	</g>
</g>
<g>
	<g>
		<path class="st0" d="M391.175,250c32.561-47.952,37.38-94.374,6.9-118.835c-16.869-13.538-42.123-18.39-71.44-15.602    c12.74,24.701,22.004,55.553,26.353,89.894C368.244,220.043,381.054,235.095,391.175,250z"/>
	</g>
</g>
<g>
	<g>
		<path class="st0" d="M108.825,250c-32.561,47.952-37.38,94.374-6.9,118.835c16.869,13.538,42.123,18.39,71.44,15.602    c-12.74-24.701-22.004-55.553-26.353-89.894C131.756,279.957,118.946,264.905,108.825,250z"/>
	</g>
</g>
<g>
	<g>
		<path class="st0" d="M352.989,294.544c-4.349,34.34-13.613,65.193-26.353,89.894c29.316,2.788,54.571-2.064,71.44-15.602    c30.48-24.461,25.66-70.884-6.9-118.835C381.054,264.905,368.244,279.957,352.989,294.544z"/>
	</g>
</g>
<g>
	<g>
		<path class="st0" d="M147.011,205.456c4.349-34.34,13.613-65.193,26.353-89.894c-29.316-2.788-54.571,2.064-71.44,15.602    c-30.48,24.461-25.66,70.884,6.9,118.835C118.946,235.095,131.756,220.043,147.011,205.456z"/>
	</g>
</g>
<g>
	<g>
		<path class="st0" d="M250,136.702c26.683-11.669,52.981-18.89,76.636-21.14C307.369,78.208,280.159,54.921,250,54.921    s-57.369,23.287-76.636,60.642C197.019,117.812,223.317,125.033,250,136.702z"/>
	</g>
</g>
<g>
	<g>
		<path class="st0" d="M250,363.298c-26.683,11.669-52.981,18.89-76.636,21.14c19.267,37.355,46.477,60.642,76.636,60.642    s57.369-23.287,76.636-60.642C302.981,382.188,276.683,374.967,250,363.298z"/>
	</g>
</g>
<g>
	<g>
		<path class="st0" d="M241.015,280.98l-2.557,76.996c3.851,1.863,7.7,3.641,11.542,5.322c3.842-1.68,7.692-3.459,11.542-5.322    l-2.557-76.996H241.015z"/>
	</g>
</g>
<g>
	<g>
		<circle class="st3" cx="250" cy="228.035" r="52.946"/>
	</g>
</g>
<path class="st4" d="M234.167,15.833c0-2.762,2.239-5,5-5H245V5c0-2.762,2.239-5,5-5s5,2.238,5,5v5.833h5.833c2.761,0,5,2.238,5,5  s-2.239,5-5,5H255v5.833c0,2.762-2.239,5-5,5s-5-2.238-5-5v-5.833h-5.833C236.406,20.833,234.167,18.595,234.167,15.833z   M260.833,479.167H255v-5.833c0-2.762-2.239-5-5-5s-5,2.238-5,5v5.833h-5.833c-2.761,0-5,2.238-5,5s2.239,5,5,5H245V495  c0,2.762,2.239,5,5,5s5-2.238,5-5v-5.833h5.833c2.761,0,5-2.238,5-5S263.594,479.167,260.833,479.167z M495,245h-5.833v-5.833  c0-2.762-2.239-5-5-5s-5,2.238-5,5V245h-5.833c-2.761,0-5,2.238-5,5s2.239,5,5,5h5.833v5.833c0,2.762,2.239,5,5,5s5-2.238,5-5V255  H495c2.761,0,5-2.238,5-5S497.761,245,495,245z M26.666,245h-5.833v-5.833c0-2.762-2.239-5-5-5s-5,2.238-5,5V245H5  c-2.761,0-5,2.238-5,5s2.239,5,5,5h5.833v5.833c0,2.762,2.239,5,5,5s5-2.238,5-5V255h5.833c2.761,0,5-2.238,5-5  S29.427,245,26.666,245z M211.743,300.85c-2.761,0-5,2.238-5,5V326.2c0,2.762,2.239,5,5,5s5-2.238,5-5V305.85  C216.743,303.088,214.504,300.85,211.743,300.85z M288.256,300.85c-2.761,0-5,2.238-5,5V326.2c0,2.762,2.239,5,5,5s5-2.238,5-5  V305.85C293.256,303.088,291.018,300.85,288.256,300.85z M321.232,302.566v5.142c0,2.762-2.239,5-5,5s-5-2.238-5-5v-5.142  c0-9.146-7.44-16.586-16.585-16.586h-30.493l1.888,56.847c0.092,2.76-2.071,5.071-4.831,5.163c-0.057,0.002-0.113,0.003-0.169,0.003  c-2.685,0-4.904-2.131-4.994-4.834l-1.899-57.179h-8.296l-1.899,57.179c-0.091,2.76-2.396,4.947-5.163,4.831  c-2.76-0.092-4.923-2.403-4.831-5.163l1.888-56.847h-30.493c-9.146,0-16.586,7.44-16.586,16.586v5.142c0,2.762-2.239,5-5,5  s-5-2.238-5-5v-5.142c0-14.659,11.926-26.586,26.586-26.586h12.144c-15.344-10.435-25.443-28.032-25.443-47.945  c0-31.951,25.994-57.945,57.945-57.945c31.952,0,57.946,25.994,57.946,57.945c0,19.914-10.099,37.511-25.443,47.945h12.144  C309.306,275.98,321.232,287.907,321.232,302.566z M249.961,275.979h0.077c26.42-0.021,47.907-21.52,47.907-47.944  c0-26.438-21.508-47.945-47.946-47.945c-26.437,0-47.945,21.508-47.945,47.945C202.055,254.46,223.542,275.958,249.961,275.979z   M397.168,250c33.508,50.929,35.148,97.768,4.037,122.735c-14.358,11.522-34.596,17.46-59.125,17.46c-4.073,0-8.268-0.171-12.57-0.5  c-20.919,38.968-49.061,60.384-79.51,60.384c-30.449,0-58.591-21.416-79.51-60.383c-4.302,0.329-8.499,0.5-12.57,0.5  c-24.531,0-44.766-5.937-59.125-17.46C67.684,347.768,69.324,300.929,102.832,250c-33.508-50.929-35.148-97.768-4.037-122.735  c16.738-13.432,41.483-19.25,71.686-16.944c20.92-38.978,49.066-60.4,79.519-60.4c30.453,0,58.599,21.422,79.519,60.4  c30.203-2.307,54.948,3.511,71.686,16.944C432.316,152.232,430.676,199.071,397.168,250z M385.04,250.085  c0.02-0.028,0.041-0.057,0.061-0.085c-0.02-0.028-0.041-0.057-0.061-0.085c-0.798-1.137-1.615-2.272-2.441-3.406  c-0.241-0.331-0.485-0.662-0.729-0.993c-0.696-0.945-1.401-1.888-2.117-2.83c-0.184-0.243-0.366-0.486-0.551-0.729  c-0.881-1.151-1.778-2.3-2.688-3.448c-0.22-0.277-0.444-0.554-0.666-0.832c-0.736-0.919-1.481-1.838-2.235-2.755  c-0.256-0.312-0.511-0.623-0.769-0.934c-0.953-1.149-1.917-2.296-2.899-3.44c-0.1-0.117-0.203-0.233-0.303-0.35  c-0.897-1.042-1.808-2.081-2.729-3.118c-0.279-0.315-0.56-0.629-0.841-0.943c-0.88-0.983-1.769-1.964-2.67-2.943  c-0.161-0.174-0.318-0.35-0.479-0.524c-1.054-1.14-2.125-2.276-3.207-3.411c-0.089-0.093-0.179-0.185-0.267-0.278  c0.874,10.231,1.315,20.616,1.315,31.019s-0.441,20.788-1.315,31.019c0.089-0.094,0.18-0.187,0.269-0.28  c1.081-1.133,2.151-2.269,3.205-3.408c0.161-0.174,0.319-0.35,0.479-0.524c0.901-0.979,1.79-1.96,2.67-2.943  c0.281-0.314,0.562-0.628,0.841-0.943c0.921-1.038,1.831-2.077,2.729-3.118c0.1-0.117,0.203-0.233,0.303-0.35  c0.982-1.144,1.946-2.291,2.899-3.44c0.258-0.311,0.513-0.623,0.769-0.934c0.754-0.917,1.499-1.836,2.235-2.755  c0.222-0.277,0.446-0.554,0.666-0.832c0.91-1.147,1.806-2.296,2.686-3.447c0.187-0.244,0.369-0.489,0.555-0.734  c0.715-0.941,1.419-1.883,2.114-2.827c0.244-0.331,0.488-0.662,0.729-0.993C383.425,252.357,384.242,251.222,385.04,250.085z   M345.959,307.774c-4.083,3.595-8.277,7.121-12.551,10.551c-21.899,17.575-46.219,32.904-70.917,44.746  c1.345,0.53,2.689,1.055,4.031,1.562c0.227,0.085,0.452,0.166,0.679,0.251c1.263,0.474,2.525,0.938,3.785,1.39  c0.51,0.184,1.019,0.361,1.528,0.541c0.987,0.348,1.974,0.692,2.958,1.027c0.552,0.188,1.104,0.374,1.655,0.558  c0.976,0.326,1.949,0.644,2.922,0.956c0.517,0.166,1.035,0.334,1.551,0.497c1.183,0.373,2.363,0.734,3.542,1.087  c0.285,0.085,0.572,0.176,0.857,0.26c1.455,0.431,2.906,0.846,4.352,1.247c0.42,0.117,0.837,0.226,1.257,0.34  c1.039,0.282,2.076,0.56,3.11,0.827c0.521,0.134,1.04,0.265,1.56,0.395c0.95,0.239,1.897,0.471,2.842,0.696  c0.517,0.123,1.034,0.246,1.549,0.365c1.02,0.236,2.035,0.461,3.049,0.681c0.413,0.09,0.828,0.184,1.239,0.271  c1.415,0.299,2.824,0.584,4.225,0.851c0.212,0.04,0.421,0.075,0.633,0.115c1.192,0.224,2.379,0.437,3.56,0.637  c0.457,0.078,0.912,0.149,1.367,0.223c0.944,0.154,1.886,0.302,2.823,0.44c0.489,0.072,0.978,0.143,1.465,0.211  c0.939,0.132,1.873,0.254,2.804,0.371c0.438,0.055,0.877,0.112,1.313,0.164c0.19,0.022,0.377,0.04,0.566,0.061  c0.163-0.33,0.33-0.653,0.491-0.985c0.245-0.502,0.487-1.009,0.728-1.516c0.477-1.001,0.948-2.012,1.413-3.03  c0.23-0.504,0.462-1.008,0.689-1.516c0.512-1.145,1.014-2.302,1.511-3.466c0.161-0.376,0.325-0.748,0.484-1.126  c0.648-1.544,1.284-3.104,1.906-4.683c0.13-0.329,0.254-0.664,0.382-0.994c0.488-1.255,0.97-2.519,1.441-3.795  c0.201-0.545,0.398-1.097,0.597-1.646c0.394-1.09,0.782-2.187,1.163-3.291c0.204-0.589,0.406-1.18,0.606-1.773  c0.383-1.136,0.758-2.282,1.128-3.433c0.172-0.536,0.347-1.068,0.517-1.607c0.494-1.57,0.977-3.152,1.446-4.748  c0.033-0.113,0.068-0.223,0.101-0.336c0.5-1.708,0.982-3.432,1.454-5.167c0.145-0.533,0.284-1.072,0.426-1.608  c0.324-1.22,0.643-2.444,0.952-3.677c0.159-0.635,0.316-1.272,0.472-1.911c0.287-1.178,0.568-2.361,0.842-3.55  c0.145-0.629,0.291-1.257,0.433-1.889c0.301-1.341,0.591-2.691,0.875-4.045c0.097-0.464,0.2-0.925,0.295-1.391  c0.372-1.818,0.731-3.646,1.073-5.486c0.074-0.398,0.142-0.8,0.214-1.199C345.563,310.081,345.762,308.928,345.959,307.774z   M237.509,363.071c-24.698-11.841-49.018-27.171-70.917-44.746c-4.274-3.43-8.469-6.956-12.551-10.551  c0.197,1.154,0.397,2.306,0.606,3.452c0.073,0.399,0.14,0.801,0.214,1.199c0.342,1.84,0.701,3.668,1.073,5.486  c0.095,0.466,0.198,0.927,0.295,1.391c0.284,1.354,0.574,2.704,0.875,4.045c0.142,0.632,0.288,1.26,0.433,1.889  c0.275,1.189,0.555,2.373,0.842,3.55c0.156,0.639,0.312,1.276,0.472,1.911c0.31,1.232,0.628,2.457,0.952,3.677  c0.142,0.536,0.281,1.075,0.426,1.608c0.471,1.735,0.954,3.459,1.454,5.167c0.033,0.113,0.068,0.223,0.101,0.336  c0.469,1.595,0.952,3.177,1.446,4.748c0.169,0.539,0.344,1.071,0.517,1.607c0.37,1.151,0.745,2.296,1.128,3.433  c0.2,0.593,0.402,1.184,0.606,1.773c0.381,1.104,0.77,2.2,1.163,3.291c0.198,0.549,0.395,1.101,0.597,1.646  c0.471,1.276,0.953,2.54,1.441,3.795c0.128,0.33,0.252,0.666,0.382,0.994c0.622,1.578,1.258,3.139,1.906,4.683  c0.159,0.378,0.324,0.75,0.484,1.126c0.497,1.165,0.999,2.322,1.511,3.466c0.228,0.508,0.459,1.012,0.689,1.516  c0.465,1.019,0.936,2.029,1.413,3.03c0.242,0.507,0.484,1.014,0.728,1.516c0.161,0.332,0.328,0.655,0.491,0.985  c0.19-0.021,0.377-0.039,0.566-0.061c0.436-0.051,0.875-0.109,1.313-0.164c0.931-0.116,1.865-0.239,2.804-0.371  c0.487-0.068,0.976-0.139,1.465-0.211c0.937-0.139,1.878-0.287,2.823-0.44c0.456-0.074,0.91-0.146,1.367-0.223  c1.181-0.201,2.368-0.414,3.56-0.637c0.212-0.04,0.421-0.075,0.633-0.115c1.401-0.267,2.81-0.552,4.225-0.851  c0.412-0.087,0.826-0.181,1.239-0.271c1.013-0.22,2.029-0.445,3.049-0.681c0.515-0.119,1.032-0.242,1.549-0.365  c0.945-0.225,1.893-0.457,2.842-0.696c0.52-0.13,1.039-0.261,1.56-0.395c1.034-0.267,2.071-0.544,3.11-0.827  c0.419-0.114,0.837-0.223,1.257-0.34c1.446-0.401,2.897-0.816,4.352-1.247c0.285-0.084,0.572-0.175,0.857-0.26  c1.178-0.354,2.358-0.715,3.542-1.087c0.516-0.163,1.034-0.331,1.551-0.497c0.973-0.313,1.947-0.63,2.922-0.956  c0.551-0.184,1.103-0.37,1.655-0.558c0.985-0.335,1.971-0.679,2.958-1.027c0.509-0.18,1.018-0.357,1.528-0.541  c1.26-0.453,2.522-0.917,3.785-1.39c0.226-0.085,0.452-0.166,0.679-0.251C234.82,364.125,236.164,363.601,237.509,363.071z   M140.553,281.019c-0.874-10.231-1.315-20.616-1.315-31.019s0.441-20.787,1.315-31.019c-0.089,0.093-0.179,0.185-0.267,0.278  c-1.082,1.134-2.152,2.271-3.207,3.411c-0.161,0.174-0.319,0.35-0.479,0.524c-0.901,0.979-1.79,1.96-2.67,2.943  c-0.281,0.314-0.562,0.628-0.841,0.943c-0.921,1.038-1.831,2.077-2.729,3.118c-0.1,0.117-0.203,0.233-0.303,0.35  c-0.982,1.144-1.946,2.291-2.899,3.44c-0.258,0.311-0.513,0.623-0.769,0.934c-0.754,0.917-1.499,1.836-2.235,2.755  c-0.222,0.277-0.446,0.554-0.666,0.832c-0.91,1.148-1.807,2.297-2.688,3.448c-0.186,0.243-0.367,0.486-0.551,0.729  c-0.716,0.942-1.421,1.885-2.117,2.83c-0.244,0.331-0.488,0.662-0.729,0.993c-0.827,1.134-1.643,2.269-2.441,3.406  c-0.02,0.028-0.041,0.057-0.061,0.085c0.02,0.028,0.041,0.057,0.061,0.085c0.798,1.137,1.615,2.272,2.441,3.406  c0.241,0.331,0.485,0.662,0.729,0.993c0.695,0.943,1.4,1.886,2.114,2.827c0.186,0.245,0.368,0.49,0.555,0.734  c0.881,1.151,1.777,2.3,2.686,3.447c0.22,0.277,0.444,0.554,0.666,0.832c0.736,0.919,1.481,1.838,2.235,2.755  c0.256,0.312,0.511,0.623,0.769,0.934c0.953,1.149,1.917,2.296,2.899,3.44c0.1,0.117,0.203,0.233,0.303,0.35  c0.897,1.042,1.808,2.081,2.729,3.118c0.279,0.315,0.56,0.629,0.841,0.943c0.88,0.983,1.769,1.964,2.67,2.943  c0.161,0.174,0.318,0.35,0.479,0.524c1.054,1.139,2.123,2.275,3.205,3.408C140.373,280.832,140.464,280.925,140.553,281.019z   M154.041,192.226c4.083-3.595,8.277-7.121,12.551-10.551c21.899-17.575,46.219-32.904,70.917-44.746  c-1.345-0.53-2.689-1.055-4.031-1.562c-0.228-0.086-0.454-0.167-0.682-0.252c-1.261-0.473-2.521-0.936-3.778-1.388  c-0.512-0.184-1.023-0.362-1.534-0.542c-0.987-0.348-1.974-0.692-2.959-1.028c-0.55-0.188-1.1-0.373-1.65-0.556  c-0.976-0.326-1.951-0.644-2.924-0.957c-0.517-0.166-1.035-0.334-1.551-0.497c-1.183-0.373-2.363-0.734-3.542-1.087  c-0.285-0.085-0.572-0.176-0.857-0.26c-1.455-0.431-2.906-0.846-4.352-1.247c-0.42-0.117-0.837-0.226-1.257-0.34  c-1.039-0.282-2.076-0.56-3.11-0.827c-0.521-0.134-1.04-0.265-1.56-0.395c-0.95-0.239-1.897-0.471-2.842-0.696  c-0.517-0.123-1.034-0.246-1.549-0.365c-1.02-0.236-2.035-0.461-3.049-0.681c-0.413-0.09-0.828-0.184-1.239-0.271  c-1.414-0.298-2.822-0.583-4.222-0.851c-0.219-0.042-0.435-0.078-0.653-0.119c-1.186-0.223-2.367-0.435-3.542-0.634  c-0.458-0.078-0.912-0.149-1.368-0.224c-0.944-0.154-1.886-0.302-2.823-0.44c-0.489-0.072-0.978-0.143-1.465-0.211  c-0.939-0.132-1.873-0.254-2.804-0.371c-0.438-0.055-0.877-0.112-1.313-0.164c-0.19-0.022-0.377-0.04-0.566-0.061  c-0.163,0.33-0.33,0.653-0.491,0.985c-0.245,0.502-0.487,1.009-0.729,1.517c-0.477,1-0.947,2.01-1.412,3.028  c-0.231,0.505-0.463,1.01-0.691,1.52c-0.512,1.144-1.014,2.3-1.51,3.464c-0.161,0.377-0.326,0.748-0.485,1.127  c-0.648,1.544-1.284,3.104-1.906,4.683c-0.13,0.329-0.254,0.664-0.382,0.994c-0.488,1.255-0.97,2.519-1.441,3.795  c-0.202,0.546-0.398,1.097-0.597,1.646c-0.393,1.089-0.782,2.185-1.163,3.289c-0.204,0.59-0.407,1.182-0.607,1.776  c-0.383,1.136-0.757,2.28-1.127,3.431c-0.172,0.536-0.347,1.068-0.517,1.607c-0.494,1.57-0.977,3.152-1.446,4.748  c-0.033,0.113-0.068,0.223-0.101,0.336c-0.5,1.708-0.982,3.432-1.454,5.167c-0.145,0.533-0.284,1.073-0.426,1.609  c-0.324,1.219-0.642,2.443-0.952,3.675c-0.16,0.636-0.316,1.274-0.472,1.913c-0.287,1.177-0.568,2.361-0.842,3.549  c-0.145,0.629-0.291,1.257-0.433,1.889c-0.301,1.341-0.591,2.691-0.875,4.045c-0.097,0.464-0.2,0.925-0.295,1.391  c-0.372,1.818-0.731,3.646-1.073,5.486c-0.074,0.398-0.142,0.8-0.215,1.2C154.437,189.92,154.238,191.072,154.041,192.226z   M262.491,136.929c24.698,11.841,49.018,27.171,70.917,44.746c4.274,3.43,8.469,6.956,12.551,10.551  c-0.197-1.154-0.397-2.306-0.606-3.451c-0.073-0.399-0.14-0.802-0.215-1.2c-0.342-1.84-0.701-3.668-1.073-5.486  c-0.095-0.466-0.198-0.927-0.295-1.391c-0.284-1.354-0.574-2.704-0.875-4.045c-0.142-0.632-0.288-1.26-0.433-1.889  c-0.274-1.188-0.555-2.372-0.842-3.549c-0.156-0.639-0.312-1.277-0.472-1.913c-0.31-1.232-0.628-2.456-0.952-3.675  c-0.142-0.536-0.281-1.076-0.426-1.609c-0.471-1.735-0.954-3.459-1.454-5.167c-0.033-0.113-0.068-0.223-0.101-0.336  c-0.469-1.595-0.952-3.177-1.446-4.748c-0.169-0.539-0.345-1.072-0.517-1.607c-0.37-1.15-0.744-2.295-1.127-3.431  c-0.2-0.594-0.403-1.186-0.607-1.776c-0.381-1.104-0.769-2.199-1.163-3.289c-0.198-0.549-0.395-1.101-0.597-1.646  c-0.471-1.276-0.953-2.54-1.441-3.795c-0.128-0.33-0.252-0.666-0.382-0.994c-0.622-1.578-1.258-3.139-1.906-4.683  c-0.159-0.379-0.324-0.75-0.485-1.127c-0.496-1.164-0.998-2.32-1.51-3.464c-0.228-0.51-0.46-1.014-0.691-1.52  c-0.465-1.018-0.935-2.027-1.412-3.028c-0.242-0.507-0.484-1.014-0.729-1.517c-0.161-0.332-0.328-0.655-0.491-0.985  c-0.19,0.021-0.377,0.039-0.566,0.061c-0.436,0.051-0.875,0.109-1.313,0.164c-0.931,0.116-1.865,0.239-2.804,0.371  c-0.487,0.068-0.976,0.139-1.465,0.211c-0.937,0.139-1.878,0.287-2.823,0.44c-0.456,0.074-0.91,0.146-1.368,0.224  c-1.175,0.199-2.356,0.411-3.542,0.634c-0.218,0.041-0.435,0.077-0.653,0.119c-1.4,0.267-2.808,0.552-4.222,0.851  c-0.412,0.087-0.827,0.181-1.239,0.271c-1.013,0.22-2.029,0.445-3.049,0.681c-0.515,0.119-1.032,0.242-1.549,0.365  c-0.945,0.225-1.893,0.457-2.842,0.696c-0.52,0.13-1.039,0.261-1.56,0.395c-1.034,0.267-2.071,0.544-3.11,0.827  c-0.419,0.114-0.837,0.223-1.257,0.34c-1.446,0.401-2.897,0.816-4.352,1.247c-0.285,0.084-0.572,0.175-0.857,0.26  c-1.178,0.354-2.358,0.715-3.542,1.087c-0.516,0.163-1.034,0.331-1.551,0.497c-0.973,0.313-1.948,0.631-2.924,0.957  c-0.549,0.183-1.099,0.368-1.65,0.556c-0.985,0.336-1.972,0.68-2.959,1.028c-0.511,0.181-1.022,0.358-1.534,0.542  c-1.258,0.452-2.518,0.915-3.778,1.388c-0.227,0.085-0.454,0.166-0.682,0.252C265.18,135.875,263.836,136.399,262.491,136.929z   M350.762,250c0-14.209-0.855-28.374-2.523-42.141c-6.676-6.314-13.753-12.498-21.089-18.385  c-23.724-19.039-50.357-35.353-77.149-47.293c-26.792,11.94-53.425,28.254-77.149,47.293c-7.336,5.887-14.413,12.071-21.089,18.385  c-1.669,13.767-2.523,27.932-2.523,42.141s0.855,28.374,2.523,42.141c6.676,6.314,13.753,12.498,21.089,18.385  c23.724,19.039,50.357,35.353,77.149,47.293c26.792-11.94,53.425-28.254,77.149-47.293c7.336-5.887,14.413-12.071,21.089-18.385  C349.907,278.374,350.762,264.209,350.762,250z M334.397,120.004c0.282,0.599,0.553,1.214,0.831,1.819  c0.306,0.667,0.614,1.332,0.916,2.005c0.447,0.999,0.884,2.011,1.32,3.024c0.271,0.63,0.547,1.255,0.813,1.892  c0.497,1.185,0.982,2.387,1.464,3.591c0.192,0.479,0.39,0.95,0.579,1.432c0.664,1.69,1.314,3.397,1.948,5.122  c0.143,0.389,0.279,0.787,0.42,1.178c0.488,1.348,0.971,2.7,1.441,4.068c0.219,0.638,0.429,1.286,0.644,1.929  c0.38,1.137,0.759,2.274,1.127,3.424c0.23,0.719,0.452,1.445,0.677,2.168c0.339,1.092,0.676,2.186,1.004,3.289  c0.225,0.759,0.445,1.522,0.665,2.286c0.313,1.087,0.622,2.178,0.924,3.275c0.214,0.778,0.426,1.559,0.634,2.342  c0.295,1.107,0.583,2.221,0.866,3.337c0.198,0.778,0.395,1.556,0.587,2.339c0.284,1.156,0.557,2.319,0.829,3.485  c0.175,0.752,0.353,1.503,0.523,2.26c0.283,1.258,0.553,2.526,0.822,3.795c0.143,0.674,0.291,1.343,0.43,2.021  c0.328,1.602,0.641,3.214,0.947,4.833c0.066,0.351,0.138,0.697,0.204,1.048c0.367,1.979,0.716,3.97,1.049,5.972  c0.087,0.523,0.165,1.051,0.249,1.576c0.238,1.476,0.473,2.953,0.692,4.44c0.109,0.737,0.208,1.48,0.312,2.22  c0.136,0.966,0.28,1.928,0.408,2.899c0.162,0.157,0.317,0.315,0.479,0.472c1.376,1.334,2.737,2.673,4.076,4.018  c0.173,0.174,0.343,0.35,0.516,0.524c1.276,1.288,2.533,2.58,3.774,3.875c0.197,0.206,0.398,0.411,0.594,0.618  c1.298,1.363,2.574,2.732,3.834,4.104c0.256,0.279,0.511,0.558,0.765,0.837c1.259,1.381,2.501,2.766,3.721,4.156  c0.159,0.181,0.314,0.363,0.473,0.544c1.178,1.35,2.338,2.703,3.479,4.06c0.133,0.159,0.269,0.316,0.402,0.475  c1.182,1.412,2.338,2.829,3.478,4.248c0.215,0.268,0.43,0.537,0.644,0.805c1.125,1.411,2.231,2.825,3.314,4.242  c0.153,0.2,0.303,0.401,0.455,0.602c1.062,1.398,2.105,2.799,3.125,4.202c0.059,0.082,0.123,0.163,0.182,0.245  c28.329-44.872,29.979-85.114,3.914-106.033C380.958,123.839,360.127,118.678,334.397,120.004z M181.271,111.441  c0.328,0.044,0.66,0.098,0.989,0.144c0.586,0.082,1.174,0.168,1.764,0.256c0.895,0.133,1.793,0.273,2.694,0.419  c0.59,0.096,1.18,0.192,1.773,0.293c0.929,0.159,1.862,0.327,2.797,0.499c0.566,0.104,1.13,0.206,1.698,0.315  c1.032,0.198,2.069,0.41,3.108,0.624c0.472,0.098,0.941,0.189,1.414,0.29c1.514,0.323,3.034,0.66,4.561,1.016  c0.09,0.021,0.181,0.045,0.271,0.066c1.436,0.336,2.877,0.689,4.323,1.055c0.51,0.129,1.022,0.267,1.534,0.4  c1.033,0.269,2.066,0.54,3.103,0.823c0.597,0.163,1.195,0.333,1.793,0.5c0.962,0.27,1.924,0.543,2.889,0.826  c0.625,0.183,1.252,0.37,1.878,0.558c0.952,0.286,1.906,0.578,2.861,0.876c0.624,0.195,1.248,0.39,1.874,0.59  c0.983,0.314,1.968,0.638,2.954,0.965c0.594,0.197,1.186,0.391,1.781,0.592c1.094,0.371,2.19,0.754,3.286,1.14  c0.484,0.17,0.966,0.335,1.45,0.508c1.581,0.565,3.164,1.145,4.749,1.742c0.15,0.057,0.301,0.117,0.451,0.174  c1.433,0.542,2.867,1.097,4.301,1.665c0.53,0.209,1.059,0.427,1.589,0.64c1.059,0.426,2.119,0.854,3.178,1.294  c0.612,0.254,1.224,0.514,1.837,0.772c0.609,0.257,1.219,0.507,1.828,0.769c0.609-0.262,1.219-0.512,1.828-0.769  c0.612-0.259,1.224-0.519,1.837-0.772c1.06-0.439,2.119-0.868,3.178-1.294c0.53-0.213,1.06-0.431,1.589-0.64  c1.435-0.568,2.869-1.122,4.301-1.665c0.15-0.057,0.301-0.117,0.451-0.174c1.585-0.597,3.168-1.177,4.749-1.742  c0.484-0.173,0.967-0.338,1.45-0.508c1.096-0.386,2.192-0.769,3.286-1.14c0.594-0.201,1.187-0.396,1.781-0.592  c0.986-0.327,1.971-0.65,2.954-0.965c0.625-0.2,1.25-0.396,1.874-0.59c0.955-0.298,1.909-0.59,2.861-0.876  c0.627-0.188,1.253-0.375,1.878-0.558c0.965-0.283,1.928-0.556,2.889-0.826c0.598-0.167,1.197-0.337,1.793-0.5  c1.037-0.283,2.07-0.554,3.103-0.823c0.511-0.133,1.024-0.271,1.534-0.4c1.446-0.366,2.887-0.719,4.323-1.055  c0.09-0.021,0.181-0.045,0.271-0.066c1.527-0.356,3.046-0.693,4.561-1.016c0.473-0.101,0.942-0.192,1.414-0.29  c1.039-0.214,2.076-0.426,3.108-0.624c0.568-0.109,1.132-0.21,1.698-0.315c0.935-0.172,1.868-0.34,2.797-0.499  c0.593-0.101,1.183-0.198,1.773-0.293c0.901-0.146,1.799-0.286,2.694-0.419c0.589-0.088,1.177-0.174,1.764-0.256  c0.329-0.046,0.661-0.099,0.989-0.144C299.904,78.147,275.682,59.921,250,59.921S200.096,78.147,181.271,111.441z M108.968,241.097  c0.059-0.082,0.123-0.163,0.182-0.245c1.02-1.403,2.064-2.804,3.125-4.202c0.152-0.201,0.302-0.401,0.455-0.602  c1.083-1.417,2.189-2.831,3.314-4.242c0.214-0.268,0.429-0.537,0.644-0.805c1.14-1.419,2.296-2.835,3.478-4.248  c0.133-0.159,0.269-0.316,0.402-0.475c1.14-1.357,2.3-2.71,3.479-4.06c0.158-0.181,0.314-0.363,0.473-0.544  c1.219-1.39,2.462-2.774,3.721-4.156c0.254-0.279,0.509-0.558,0.765-0.837c1.26-1.372,2.536-2.741,3.834-4.104  c0.196-0.207,0.397-0.412,0.594-0.618c1.241-1.296,2.499-2.588,3.774-3.875c0.173-0.174,0.343-0.35,0.516-0.524  c1.339-1.345,2.7-2.684,4.076-4.018c0.162-0.157,0.317-0.315,0.479-0.472c0.128-0.971,0.272-1.933,0.408-2.899  c0.104-0.74,0.203-1.482,0.312-2.22c0.219-1.487,0.454-2.964,0.692-4.44c0.085-0.524,0.162-1.053,0.249-1.576  c0.333-2.001,0.682-3.992,1.049-5.972c0.065-0.351,0.137-0.698,0.204-1.048c0.306-1.618,0.619-3.23,0.947-4.833  c0.139-0.677,0.287-1.347,0.43-2.021c0.269-1.269,0.539-2.537,0.822-3.795c0.17-0.757,0.348-1.507,0.523-2.26  c0.271-1.166,0.545-2.33,0.829-3.485c0.192-0.783,0.389-1.561,0.587-2.339c0.284-1.117,0.571-2.23,0.866-3.337  c0.209-0.783,0.42-1.563,0.634-2.342c0.302-1.098,0.611-2.188,0.924-3.275c0.22-0.764,0.44-1.527,0.665-2.286  c0.328-1.103,0.664-2.197,1.004-3.289c0.225-0.724,0.447-1.45,0.677-2.168c0.368-1.15,0.747-2.287,1.127-3.424  c0.215-0.643,0.425-1.291,0.644-1.929c0.47-1.368,0.953-2.721,1.441-4.068c0.141-0.391,0.277-0.789,0.42-1.178  c0.634-1.725,1.284-3.432,1.948-5.122c0.189-0.481,0.387-0.953,0.579-1.432c0.482-1.204,0.966-2.406,1.464-3.591  c0.267-0.636,0.542-1.261,0.813-1.892c0.436-1.013,0.873-2.025,1.32-3.024c0.301-0.673,0.609-1.338,0.916-2.005  c0.278-0.605,0.549-1.22,0.831-1.819c-2.636-0.136-5.222-0.204-7.753-0.204c-22.175,0-40.24,5.188-52.796,15.264  C78.988,155.982,80.639,196.225,108.968,241.097z M165.603,379.996c-0.282-0.599-0.553-1.214-0.831-1.819  c-0.306-0.667-0.614-1.332-0.916-2.005c-0.447-0.999-0.884-2.011-1.32-3.024c-0.271-0.63-0.547-1.255-0.813-1.892  c-0.497-1.185-0.982-2.387-1.464-3.591c-0.192-0.479-0.39-0.95-0.579-1.432c-0.664-1.69-1.314-3.397-1.948-5.122  c-0.143-0.389-0.279-0.787-0.42-1.178c-0.488-1.348-0.971-2.7-1.441-4.068c-0.219-0.638-0.429-1.286-0.644-1.929  c-0.38-1.137-0.759-2.274-1.127-3.424c-0.23-0.719-0.452-1.445-0.677-2.168c-0.339-1.092-0.676-2.186-1.004-3.289  c-0.225-0.759-0.445-1.522-0.665-2.286c-0.313-1.087-0.622-2.178-0.924-3.275c-0.214-0.778-0.426-1.559-0.634-2.342  c-0.295-1.107-0.583-2.221-0.866-3.337c-0.198-0.778-0.395-1.556-0.587-2.339c-0.284-1.156-0.557-2.319-0.829-3.485  c-0.175-0.752-0.353-1.503-0.523-2.26c-0.283-1.258-0.553-2.526-0.822-3.795c-0.143-0.674-0.291-1.343-0.43-2.021  c-0.328-1.602-0.641-3.214-0.947-4.833c-0.066-0.351-0.138-0.697-0.204-1.048c-0.367-1.979-0.716-3.97-1.049-5.972  c-0.087-0.523-0.165-1.051-0.249-1.576c-0.238-1.476-0.473-2.953-0.692-4.44c-0.109-0.737-0.208-1.48-0.312-2.22  c-0.136-0.966-0.28-1.928-0.408-2.899c-0.162-0.157-0.317-0.315-0.479-0.472c-1.376-1.334-2.737-2.673-4.076-4.018  c-0.173-0.174-0.343-0.35-0.516-0.524c-1.276-1.288-2.533-2.58-3.774-3.875c-0.197-0.206-0.398-0.411-0.594-0.618  c-1.298-1.363-2.574-2.732-3.834-4.104c-0.256-0.279-0.511-0.558-0.765-0.837c-1.259-1.381-2.501-2.766-3.721-4.156  c-0.159-0.181-0.314-0.363-0.473-0.544c-1.178-1.35-2.338-2.703-3.479-4.06c-0.133-0.159-0.269-0.316-0.402-0.475  c-1.182-1.412-2.338-2.829-3.478-4.248c-0.215-0.268-0.43-0.537-0.644-0.805c-1.125-1.411-2.231-2.825-3.314-4.242  c-0.153-0.2-0.303-0.401-0.455-0.602c-1.062-1.398-2.105-2.799-3.125-4.202c-0.059-0.082-0.123-0.163-0.182-0.245  c-28.329,44.872-29.979,85.114-3.914,106.033C119.042,376.162,139.877,381.321,165.603,379.996z M318.729,388.559  c-0.328-0.044-0.66-0.098-0.989-0.144c-0.586-0.082-1.174-0.168-1.764-0.256c-0.895-0.133-1.793-0.273-2.694-0.419  c-0.59-0.096-1.18-0.192-1.773-0.293c-0.929-0.159-1.862-0.327-2.797-0.499c-0.566-0.104-1.13-0.206-1.698-0.315  c-1.032-0.198-2.069-0.41-3.108-0.624c-0.472-0.098-0.941-0.189-1.414-0.29c-1.514-0.323-3.034-0.66-4.561-1.016  c-0.09-0.021-0.181-0.045-0.271-0.066c-1.436-0.336-2.877-0.689-4.323-1.055c-0.51-0.129-1.022-0.267-1.534-0.4  c-1.033-0.269-2.066-0.54-3.103-0.823c-0.597-0.163-1.195-0.333-1.793-0.5c-0.962-0.27-1.924-0.543-2.889-0.826  c-0.625-0.183-1.252-0.37-1.878-0.558c-0.952-0.286-1.906-0.578-2.861-0.876c-0.624-0.195-1.248-0.39-1.874-0.59  c-0.983-0.314-1.968-0.638-2.954-0.965c-0.594-0.197-1.186-0.391-1.781-0.592c-1.094-0.371-2.19-0.754-3.286-1.14  c-0.484-0.17-0.966-0.335-1.45-0.508c-1.581-0.565-3.164-1.145-4.749-1.742c-0.15-0.057-0.301-0.117-0.451-0.174  c-1.433-0.542-2.867-1.097-4.301-1.665c-0.53-0.209-1.059-0.427-1.589-0.64c-1.059-0.426-2.119-0.854-3.178-1.294  c-0.612-0.254-1.224-0.514-1.837-0.772c-0.609-0.257-1.219-0.507-1.828-0.769c-0.609,0.262-1.219,0.512-1.828,0.769  c-0.612,0.259-1.224,0.519-1.837,0.772c-1.06,0.439-2.119,0.868-3.178,1.294c-0.53,0.213-1.06,0.431-1.589,0.64  c-1.435,0.568-2.869,1.122-4.301,1.665c-0.15,0.057-0.301,0.117-0.451,0.174c-1.585,0.597-3.168,1.177-4.749,1.742  c-0.484,0.173-0.967,0.338-1.45,0.508c-1.096,0.386-2.192,0.769-3.286,1.14c-0.594,0.201-1.187,0.396-1.781,0.592  c-0.986,0.327-1.971,0.65-2.954,0.965c-0.625,0.2-1.25,0.396-1.874,0.59c-0.955,0.298-1.909,0.59-2.861,0.876  c-0.627,0.188-1.253,0.375-1.878,0.558c-0.965,0.283-1.928,0.556-2.889,0.826c-0.598,0.167-1.197,0.337-1.793,0.5  c-1.037,0.283-2.07,0.554-3.103,0.823c-0.511,0.133-1.024,0.271-1.534,0.4c-1.446,0.366-2.887,0.719-4.323,1.055  c-0.09,0.021-0.181,0.045-0.271,0.066c-1.527,0.356-3.046,0.693-4.561,1.016c-0.473,0.101-0.942,0.192-1.414,0.29  c-1.039,0.214-2.076,0.426-3.108,0.624c-0.568,0.109-1.132,0.21-1.698,0.315c-0.935,0.172-1.868,0.34-2.797,0.499  c-0.593,0.101-1.183,0.198-1.773,0.293c-0.901,0.146-1.799,0.286-2.694,0.419c-0.589,0.088-1.177,0.174-1.764,0.256  c-0.329,0.046-0.661,0.099-0.989,0.144c18.826,33.294,43.048,51.521,68.729,51.521S299.904,421.853,318.729,388.559z   M391.032,258.903c-0.059,0.082-0.123,0.163-0.182,0.245c-1.02,1.403-2.064,2.804-3.125,4.202c-0.152,0.201-0.302,0.401-0.455,0.602  c-1.083,1.417-2.189,2.831-3.314,4.242c-0.214,0.268-0.429,0.537-0.644,0.805c-1.14,1.419-2.296,2.835-3.478,4.248  c-0.133,0.159-0.269,0.316-0.402,0.475c-1.14,1.357-2.3,2.71-3.479,4.06c-0.158,0.181-0.314,0.363-0.473,0.544  c-1.219,1.39-2.462,2.774-3.721,4.156c-0.254,0.279-0.509,0.558-0.765,0.837c-1.26,1.372-2.536,2.741-3.834,4.104  c-0.196,0.207-0.397,0.412-0.594,0.618c-1.241,1.296-2.499,2.588-3.774,3.875c-0.173,0.174-0.343,0.35-0.516,0.524  c-1.339,1.345-2.7,2.684-4.076,4.018c-0.162,0.157-0.317,0.315-0.479,0.472c-0.128,0.971-0.272,1.933-0.408,2.899  c-0.104,0.74-0.203,1.482-0.312,2.22c-0.219,1.487-0.454,2.964-0.692,4.44c-0.085,0.524-0.162,1.053-0.249,1.576  c-0.333,2.001-0.682,3.992-1.049,5.972c-0.065,0.351-0.137,0.698-0.204,1.048c-0.306,1.618-0.619,3.23-0.947,4.833  c-0.139,0.677-0.287,1.347-0.43,2.021c-0.269,1.269-0.539,2.537-0.822,3.795c-0.17,0.757-0.348,1.507-0.523,2.26  c-0.271,1.166-0.545,2.33-0.829,3.485c-0.192,0.783-0.389,1.561-0.587,2.339c-0.284,1.117-0.571,2.23-0.866,3.337  c-0.209,0.783-0.42,1.563-0.634,2.342c-0.302,1.098-0.611,2.188-0.924,3.275c-0.22,0.764-0.44,1.527-0.665,2.286  c-0.328,1.103-0.664,2.197-1.004,3.289c-0.225,0.724-0.447,1.45-0.677,2.168c-0.368,1.15-0.747,2.287-1.127,3.424  c-0.215,0.643-0.425,1.291-0.644,1.929c-0.47,1.368-0.953,2.721-1.441,4.068c-0.141,0.391-0.277,0.789-0.42,1.178  c-0.634,1.725-1.284,3.432-1.948,5.122c-0.189,0.481-0.387,0.953-0.579,1.432c-0.482,1.204-0.966,2.406-1.464,3.591  c-0.267,0.636-0.542,1.261-0.813,1.892c-0.436,1.013-0.873,2.025-1.32,3.024c-0.301,0.673-0.609,1.338-0.916,2.005  c-0.278,0.605-0.549,1.22-0.831,1.819c25.734,1.327,46.56-3.834,60.549-15.06C421.012,344.018,419.361,303.775,391.032,258.903z   M48.93,245h-2.597c-2.761,0-5,2.238-5,5s2.239,5,5,5h2.597c2.761,0,5-2.238,5-5S51.691,245,48.93,245z M91.114,250  c0-2.762-2.239-5-5-5H66.82c-2.761,0-5,2.238-5,5s2.239,5,5,5h19.293C88.875,255,91.114,252.762,91.114,250z M453.667,245h-2.597  c-2.761,0-5,2.238-5,5s2.239,5,5,5h2.597c2.761,0,5-2.238,5-5S456.429,245,453.667,245z M433.18,245h-19.293c-2.761,0-5,2.238-5,5  s2.239,5,5,5h19.293c2.761,0,5-2.238,5-5S435.941,245,433.18,245z"/>
</svg>
